<?xml version="1.0" standalone="no"?>
<!DOCTYPE svg PUBLIC "-//W3C//DTD SVG 20010904//EN"
 "http://www.w3.org/TR/2001/REC-SVG-20010904/DTD/svg10.dtd">
<svg version="1.0" xmlns="http://www.w3.org/2000/svg"
 width="3200.000000pt" height="3200.000000pt" viewBox="0 0 3200.000000 3200.000000"
 preserveAspectRatio="xMidYMid meet">
<metadata>
Created by potrace 1.14, written by Peter Selinger 2001-2017
</metadata>
<g transform="translate(0.000000,3200.000000) scale(0.100000,-0.100000)"
fill="#000000" stroke="none">
<path d="M15435 30874 c-33 -2 -157 -8 -275 -14 -977 -50 -2127 -234 -3040
-486 -1363 -377 -2534 -872 -3710 -1569 -1513 -896 -2860 -2063 -3995 -3460
-184 -227 -509 -662 -681 -913 -1390 -2023 -2258 -4345 -2523 -6752 -73 -655
-85 -903 -86 -1670 0 -679 4 -785 46 -1280 219 -2580 1092 -5021 2563 -7162
664 -967 1495 -1907 2386 -2698 716 -636 1478 -1194 2290 -1675 1939 -1151
4093 -1839 6330 -2024 510 -43 605 -46 1265 -46 660 0 730 3 1255 46 879 72
1719 218 2595 450 2082 553 4053 1582 5725 2988 540 454 1115 1017 1586 1551
1109 1258 1992 2681 2621 4223 558 1369 908 2816 1037 4287 50 569 70 1384 47
1935 -67 1624 -387 3191 -954 4680 -496 1303 -1148 2490 -1981 3605 -615 823
-1295 1565 -2056 2240 -1543 1371 -3329 2395 -5280 3029 -1188 386 -2363 609
-3665 697 -212 14 -1327 28 -1500 18z m-2082 -2994 c377 -83 747 -388 1233
-1015 461 -594 904 -1322 1373 -2255 718 -1426 1244 -2801 1397 -3650 30 -170
44 -465 25 -565 -14 -78 -86 -222 -162 -327 -87 -117 -272 -297 -422 -409
-269 -201 -639 -399 -1067 -572 -74 -30 -181 -71 -237 -92 -57 -20 -103 -39
-103 -40 0 -2 72 -189 159 -417 87 -227 275 -714 416 -1083 141 -368 335 -872
430 -1120 95 -247 289 -751 430 -1120 141 -368 335 -872 430 -1120 95 -247
289 -751 430 -1120 388 -1010 464 -1207 468 -1211 2 -2 45 8 95 21 51 14 145
32 210 41 228 33 249 18 463 -321 105 -166 122 -195 113 -195 -4 0 0 -6 9 -12
19 -15 359 -609 352 -616 -3 -3 2 -10 9 -16 8 -6 44 -67 82 -136 37 -69 75
-138 84 -155 66 -117 190 -353 190 -361 0 -4 -28 -38 -62 -74 l-63 -65 67 64
c37 36 69 63 71 60 2 -2 36 -65 74 -139 39 -74 111 -211 160 -305 49 -93 124
-235 165 -315 42 -80 110 -211 152 -291 41 -80 73 -149 69 -153 -3 -3 -2 -6 4
-6 6 0 181 -339 389 -754 l379 -754 -20 -24 -20 -23 22 18 22 19 72 -149 c110
-228 207 -429 254 -528 23 -49 61 -128 83 -175 64 -136 182 -391 182 -395 0
-2 15 -36 34 -77 67 -146 96 -209 96 -214 0 -2 9 -23 20 -47 77 -168 160 -404
160 -455 0 -61 -44 -115 -160 -199 -111 -80 -374 -219 -585 -310 -44 -19 -89
-38 -100 -43 -108 -50 -492 -192 -710 -263 -351 -114 -751 -222 -795 -213 -14
3 -18 2 -10 -1 32 -14 -338 -79 -524 -92 -228 -16 -383 11 -430 75 -17 25 -35
86 -180 624 -36 135 -72 268 -81 295 -20 69 -70 251 -179 655 -71 263 -91 348
-82 359 8 11 8 13 -1 8 -14 -9 -14 -8 -97 304 -36 135 -66 265 -67 290 0 26
-3 37 -7 27 -6 -15 -73 221 -214 757 -84 317 -114 431 -143 545 -18 69 -47
179 -65 245 -31 118 -53 202 -145 560 -73 281 -258 1021 -304 1215 -67 280
-69 288 -101 430 -51 224 -53 242 -38 251 10 7 10 9 -3 9 -19 0 -39 93 -46
222 -5 80 -4 90 20 130 61 105 226 238 430 348 l76 41 -28 77 c-16 42 -119
311 -229 597 -110 286 -338 880 -507 1320 -334 871 -640 1667 -910 2370 -95
248 -289 752 -430 1120 -461 1202 -657 1709 -670 1741 l-13 32 -214 -54 c-618
-156 -1487 -294 -1763 -281 -395 19 -709 297 -1005 886 -164 327 -310 724
-581 1571 -112 349 -197 612 -361 1110 -428 1307 -719 2416 -833 3175 -44 295
-50 375 -50 630 0 278 11 348 76 498 183 422 766 863 1599 1209 365 152 885
314 1195 373 163 32 418 34 548 5z"/>
<path d="M13683 26705 c-110 -31 -191 -96 -212 -170 -19 -70 27 -247 164 -620
315 -859 1165 -2876 1989 -4718 152 -340 195 -400 334 -465 48 -23 70 -27 142
-27 70 1 94 5 140 27 155 73 273 266 256 419 -51 445 -941 2534 -1856 4354
-396 786 -604 1145 -692 1191 -45 24 -195 29 -265 9z"/>
<path d="M12372 26210 c-163 -46 -322 -157 -322 -223 1 -147 234 -880 658
-2067 204 -571 554 -1518 1025 -2775 157 -418 297 -795 312 -838 45 -128 107
-167 260 -167 240 0 544 152 663 332 41 62 32 162 -39 428 -76 288 -295 907
-541 1535 -575 1465 -1416 3357 -1644 3701 -29 44 -44 56 -90 74 -70 26 -193
26 -282 0z"/>
<path d="M11043 25679 c-124 -21 -234 -87 -288 -173 -27 -45 -30 -56 -28 -130
9 -462 587 -2211 1629 -4933 58 -153 140 -366 181 -473 84 -221 107 -264 176
-337 189 -200 486 -135 620 135 39 81 42 91 41 166 -4 234 -238 982 -687 2191
-248 668 -710 1846 -937 2390 -16 39 -70 169 -120 290 -132 317 -234 551 -306
703 -60 127 -65 133 -106 151 -56 24 -111 30 -175 20z"/>
<path d="M17323 11323 c15 -2 39 -2 55 0 15 2 2 4 -28 4 -30 0 -43 -2 -27 -4z"/>
<path d="M17563 11303 c9 -2 23 -2 30 0 6 3 -1 5 -18 5 -16 0 -22 -2 -12 -5z"/>
<path d="M17648 11293 c6 -2 18 -2 25 0 6 3 1 5 -13 5 -14 0 -19 -2 -12 -5z"/>
<path d="M17728 11283 c6 -2 18 -2 25 0 6 3 1 5 -13 5 -14 0 -19 -2 -12 -5z"/>
<path d="M17858 11263 c6 -2 18 -2 25 0 6 3 1 5 -13 5 -14 0 -19 -2 -12 -5z"/>
<path d="M17928 11253 c6 -2 18 -2 25 0 6 3 1 5 -13 5 -14 0 -19 -2 -12 -5z"/>
<path d="M18078 11233 c6 -2 18 -2 25 0 6 3 1 5 -13 5 -14 0 -19 -2 -12 -5z"/>
<path d="M18173 11223 c9 -2 25 -2 35 0 9 3 1 5 -18 5 -19 0 -27 -2 -17 -5z"/>
<path d="M18708 11223 c6 -2 18 -2 25 0 6 3 1 5 -13 5 -14 0 -19 -2 -12 -5z"/>
<path d="M18313 11213 c15 -2 39 -2 55 0 15 2 2 4 -28 4 -30 0 -43 -2 -27 -4z"/>
<path d="M18578 11213 c12 -2 32 -2 45 0 12 2 2 4 -23 4 -25 0 -35 -2 -22 -4z"/>
<path d="M17528 10823 c39 -2 105 -2 145 0 39 1 7 3 -73 3 -80 0 -112 -2 -72
-3z"/>
<path d="M17358 10813 c6 -2 18 -2 25 0 6 3 1 5 -13 5 -14 0 -19 -2 -12 -5z"/>
<path d="M17818 10813 c6 -2 18 -2 25 0 6 3 1 5 -13 5 -14 0 -19 -2 -12 -5z"/>
<path d="M17288 10803 c7 -3 16 -2 19 1 4 3 -2 6 -13 5 -11 0 -14 -3 -6 -6z"/>
<path d="M17228 10793 c7 -3 16 -2 19 1 4 3 -2 6 -13 5 -11 0 -14 -3 -6 -6z"/>
<path d="M17958 10793 c7 -3 16 -2 19 1 4 3 -2 6 -13 5 -11 0 -14 -3 -6 -6z"/>
<path d="M17168 10783 c7 -3 16 -2 19 1 4 3 -2 6 -13 5 -11 0 -14 -3 -6 -6z"/>
<path d="M18558 10643 c7 -3 16 -2 19 1 4 3 -2 6 -13 5 -11 0 -14 -3 -6 -6z"/>
<path d="M18608 10633 c7 -3 16 -2 19 1 4 3 -2 6 -13 5 -11 0 -14 -3 -6 -6z"/>
<path d="M18708 10613 c7 -3 16 -2 19 1 4 3 -2 6 -13 5 -11 0 -14 -3 -6 -6z"/>
<path d="M19158 10613 c7 -3 16 -2 19 1 4 3 -2 6 -13 5 -11 0 -14 -3 -6 -6z"/>
<path d="M18783 10603 c9 -2 23 -2 30 0 6 3 -1 5 -18 5 -16 0 -22 -2 -12 -5z"/>
<path d="M19063 10603 c9 -2 23 -2 30 0 6 3 -1 5 -18 5 -16 0 -22 -2 -12 -5z"/>
<path d="M17433 9883 c32 -2 81 -2 110 0 29 2 3 3 -58 3 -60 0 -84 -1 -52 -3z"/>
<path d="M17273 9873 c9 -2 23 -2 30 0 6 3 -1 5 -18 5 -16 0 -22 -2 -12 -5z"/>
<path d="M17658 9873 c6 -2 18 -2 25 0 6 3 1 5 -13 5 -14 0 -19 -2 -12 -5z"/>
<path d="M19609 9843 c-13 -16 -12 -17 4 -4 9 7 17 15 17 17 0 8 -8 3 -21 -13z"/>
<path d="M19569 9793 c-13 -16 -12 -17 4 -4 9 7 17 15 17 17 0 8 -8 3 -21 -13z"/>
<path d="M19539 9753 c-13 -16 -12 -17 4 -4 9 7 17 15 17 17 0 8 -8 3 -21 -13z"/>
<path d="M18050 9708 c41 -45 50 -53 50 -45 0 2 -21 23 -47 47 l-48 45 45 -47z"/>
<path d="M19455 9619 c-4 -6 -5 -12 -2 -15 2 -3 7 2 10 11 7 17 1 20 -8 4z"/>
<path d="M18192 9400 c0 -14 2 -19 5 -12 2 6 2 18 0 25 -3 6 -5 1 -5 -13z"/>
<path d="M19341 9284 c0 -11 3 -14 6 -6 3 7 2 16 -1 19 -3 4 -6 -2 -5 -13z"/>
<path d="M19333 9175 c0 -22 2 -30 4 -17 2 12 2 30 0 40 -3 9 -5 -1 -4 -23z"/>
<path d="M18192 9110 c0 -19 2 -27 5 -17 2 9 2 25 0 35 -3 9 -5 1 -5 -18z"/>
<path d="M18171 8954 c0 -11 3 -14 6 -6 3 7 2 16 -1 19 -3 4 -6 -2 -5 -13z"/>
<path d="M19322 8950 c0 -14 2 -19 5 -12 2 6 2 18 0 25 -3 6 -5 1 -5 -13z"/>
<path d="M18161 8894 c0 -11 3 -14 6 -6 3 7 2 16 -1 19 -3 4 -6 -2 -5 -13z"/>
<path d="M19311 8874 c0 -11 3 -14 6 -6 3 7 2 16 -1 19 -3 4 -6 -2 -5 -13z"/>
<path d="M19175 8628 l-50 -53 53 50 c28 27 52 51 52 52 0 8 -9 -1 -55 -49z"/>
<path d="M20294 8648 l-19 -23 23 19 c21 18 27 26 19 26 -2 0 -12 -10 -23 -22z"/>
<path d="M19089 8553 c-13 -16 -12 -17 4 -4 9 7 17 15 17 17 0 8 -8 3 -21 -13z"/>
<path d="M20194 8548 l-19 -23 23 19 c21 18 27 26 19 26 -2 0 -12 -10 -23 -22z"/>
<path d="M19024 8498 l-19 -23 23 19 c21 18 27 26 19 26 -2 0 -12 -10 -23 -22z"/>
<path d="M17964 8468 l-19 -23 23 19 c21 18 27 26 19 26 -2 0 -12 -10 -23 -22z"/>
<path d="M18969 8453 l-24 -28 28 24 c15 14 27 26 27 28 0 8 -8 1 -31 -24z"/>
<path d="M17815 8308 l-130 -133 133 130 c72 71 132 131 132 132 0 8 -15 -6
-135 -129z"/>
<path d="M18894 8388 l-29 -33 33 29 c30 28 37 36 29 36 -2 0 -16 -15 -33 -32z"/>
<path d="M18805 8308 l-50 -53 53 50 c28 27 52 51 52 52 0 8 -9 -1 -55 -49z"/>
<path d="M19754 8258 l-19 -23 23 19 c21 18 27 26 19 26 -2 0 -12 -10 -23 -22z"/>
<path d="M19649 8153 c-13 -16 -12 -17 4 -4 9 7 17 15 17 17 0 8 -8 3 -21 -13z"/>
<path d="M18585 8088 l-40 -43 43 40 c39 36 47 45 39 45 -2 0 -21 -19 -42 -42z"/>
<path d="M18504 7998 l-19 -23 23 19 c21 18 27 26 19 26 -2 0 -12 -10 -23 -22z"/>
<path d="M18464 7948 l-19 -23 23 19 c21 18 27 26 19 26 -2 0 -12 -10 -23 -22z"/>
<path d="M18429 7903 c-13 -16 -12 -17 4 -4 9 7 17 15 17 17 0 8 -8 3 -21 -13z"/>
<path d="M19481 7724 c0 -11 3 -14 6 -6 3 7 2 16 -1 19 -3 4 -6 -2 -5 -13z"/>
<path d="M19462 7610 c0 -14 2 -19 5 -12 2 6 2 18 0 25 -3 6 -5 1 -5 -13z"/>
<path d="M19452 7530 c0 -14 2 -19 5 -12 2 6 2 18 0 25 -3 6 -5 1 -5 -13z"/>
<path d="M19442 7430 c0 -19 2 -27 5 -17 2 9 2 25 0 35 -3 9 -5 1 -5 -18z"/>
<path d="M19442 7270 c0 -14 2 -19 5 -12 2 6 2 18 0 25 -3 6 -5 1 -5 -13z"/>
<path d="M18121 7244 c0 -11 3 -14 6 -6 3 7 2 16 -1 19 -3 4 -6 -2 -5 -13z"/>
<path d="M21099 7223 c-13 -16 -12 -17 4 -4 16 13 21 21 13 21 -2 0 -10 -8
-17 -17z"/>
<path d="M21049 7183 c-13 -16 -12 -17 4 -4 16 13 21 21 13 21 -2 0 -10 -8
-17 -17z"/>
<path d="M19530 7065 c19 -19 36 -35 39 -35 3 0 -10 16 -29 35 -19 19 -36 35
-39 35 -3 0 10 -16 29 -35z"/>
<path d="M18092 7065 c0 -16 2 -22 5 -12 2 9 2 23 0 30 -3 6 -5 -1 -5 -18z"/>
<path d="M20880 7080 c-9 -6 -10 -10 -3 -10 6 0 15 5 18 10 8 12 4 12 -15 0z"/>
<path d="M18082 6965 c0 -16 2 -22 5 -12 2 9 2 23 0 30 -3 6 -5 -1 -5 -18z"/>
<path d="M20598 6983 c7 -3 16 -2 19 1 4 3 -2 6 -13 5 -11 0 -14 -3 -6 -6z"/>
<path d="M20488 6963 c7 -3 16 -2 19 1 4 3 -2 6 -13 5 -11 0 -14 -3 -6 -6z"/>
<path d="M19793 6953 c9 -2 23 -2 30 0 6 3 -1 5 -18 5 -16 0 -22 -2 -12 -5z"/>
<path d="M20383 6953 c9 -2 25 -2 35 0 9 3 1 5 -18 5 -19 0 -27 -2 -17 -5z"/>
<path d="M20013 6943 c48 -2 125 -2 170 0 45 1 6 3 -88 3 -93 0 -130 -2 -82
-3z"/>
<path d="M21504 6364 c-18 -14 -18 -15 4 -4 12 6 22 13 22 15 0 8 -5 6 -26
-11z"/>
<path d="M18623 6303 c15 -2 39 -2 55 0 15 2 2 4 -28 4 -30 0 -43 -2 -27 -4z"/>
<path d="M18548 6293 c7 -3 16 -2 19 1 4 3 -2 6 -13 5 -11 0 -14 -3 -6 -6z"/>
<path d="M21275 6250 c-3 -6 1 -7 9 -4 18 7 21 14 7 14 -6 0 -13 -4 -16 -10z"/>
<path d="M18875 6220 c10 -11 20 -20 23 -20 3 0 -3 9 -13 20 -10 11 -20 20
-23 20 -3 0 3 -9 13 -20z"/>
<path d="M19075 6030 c10 -11 20 -20 23 -20 3 0 -3 9 -13 20 -10 11 -20 20
-23 20 -3 0 3 -9 13 -20z"/>
<path d="M20478 5983 c7 -3 16 -2 19 1 4 3 -2 6 -13 5 -11 0 -14 -3 -6 -6z"/>
<path d="M20428 5973 c7 -3 16 -2 19 1 4 3 -2 6 -13 5 -11 0 -14 -3 -6 -6z"/>
<path d="M20368 5963 c7 -3 16 -2 19 1 4 3 -2 6 -13 5 -11 0 -14 -3 -6 -6z"/>
<path d="M20258 5943 c7 -3 16 -2 19 1 4 3 -2 6 -13 5 -11 0 -14 -3 -6 -6z"/>
<path d="M19258 5933 c7 -3 16 -2 19 1 4 3 -2 6 -13 5 -11 0 -14 -3 -6 -6z"/>
<path d="M20178 5933 c6 -2 18 -2 25 0 6 3 1 5 -13 5 -14 0 -19 -2 -12 -5z"/>
<path d="M20098 5923 c7 -3 16 -2 19 1 4 3 -2 6 -13 5 -11 0 -14 -3 -6 -6z"/>
<path d="M19358 5913 c7 -3 16 -2 19 1 4 3 -2 6 -13 5 -11 0 -14 -3 -6 -6z"/>
<path d="M20018 5913 c6 -2 18 -2 25 0 6 3 1 5 -13 5 -14 0 -19 -2 -12 -5z"/>
<path d="M19468 5903 c18 -2 45 -2 60 0 15 2 0 4 -33 4 -33 0 -45 -2 -27 -4z"/>
<path d="M19838 5903 c17 -2 47 -2 65 0 17 2 3 4 -33 4 -36 0 -50 -2 -32 -4z"/>
<path d="M21988 5323 c6 -2 18 -2 25 0 6 3 1 5 -13 5 -14 0 -19 -2 -12 -5z"/>
<path d="M19018 5143 c17 -2 47 -2 65 0 17 2 3 4 -33 4 -36 0 -50 -2 -32 -4z"/>
<path d="M19268 5143 c12 -2 32 -2 45 0 12 2 2 4 -23 4 -25 0 -35 -2 -22 -4z"/>
<path d="M18873 5133 c9 -2 25 -2 35 0 9 3 1 5 -18 5 -19 0 -27 -2 -17 -5z"/>
<path d="M19388 5133 c7 -3 16 -2 19 1 4 3 -2 6 -13 5 -11 0 -14 -3 -6 -6z"/>
<path d="M18718 5113 c6 -2 18 -2 25 0 6 3 1 5 -13 5 -14 0 -19 -2 -12 -5z"/>
<path d="M18648 5103 c7 -3 16 -2 19 1 4 3 -2 6 -13 5 -11 0 -14 -3 -6 -6z"/>
<path d="M19610 5066 c0 -2 7 -7 16 -10 8 -3 12 -2 9 4 -6 10 -25 14 -25 6z"/>
<path d="M19880 4896 c0 -3 9 -10 20 -16 11 -6 20 -8 20 -6 0 3 -9 10 -20 16
-11 6 -20 8 -20 6z"/>
<path d="M20148 4783 c7 -3 16 -2 19 1 4 3 -2 6 -13 5 -11 0 -14 -3 -6 -6z"/>
<path d="M20518 4783 c6 -2 18 -2 25 0 6 3 1 5 -13 5 -14 0 -19 -2 -12 -5z"/>
<path d="M20218 4773 c6 -2 18 -2 25 0 6 3 1 5 -13 5 -14 0 -19 -2 -12 -5z"/>
<path d="M20433 4773 c9 -2 23 -2 30 0 6 3 -1 5 -18 5 -16 0 -22 -2 -12 -5z"/>
<path d="M19013 4383 c9 -2 23 -2 30 0 6 3 -1 5 -18 5 -16 0 -22 -2 -12 -5z"/>
<path d="M19088 4383 c12 -2 30 -2 40 0 9 3 -1 5 -23 4 -22 0 -30 -2 -17 -4z"/>
<path d="M19178 4373 c7 -3 16 -2 19 1 4 3 -2 6 -13 5 -11 0 -14 -3 -6 -6z"/>
<path d="M18864 4318 l-29 -33 33 29 c30 28 37 36 29 36 -2 0 -16 -15 -33 -32z"/>
<path d="M19308 4343 c7 -3 16 -2 19 1 4 3 -2 6 -13 5 -11 0 -14 -3 -6 -6z"/>
</g>
</svg>
